<svg xmlns="http://www.w3.org/2000/svg" viewBox="0 0 24 24" fill="currentColor">
  <path d="M12 2C6.48 2 2 6.48 2 12s4.48 10 10 10 10-4.48 10-10S17.52 2 12 2zm1.41 16.09V20h-2.67v-1.93c-1.71-.36-3.16-1.46-3.27-3.4h1.96c.1.81.45 1.61 1.67 1.61 1.16 0 1.6-.64 1.6-1.46 0-.84-.68-1.22-1.88-1.73-1.78-.74-3.24-1.52-3.24-3.44 0-1.54 1.13-2.79 2.93-3.18V5h2.67v2.06c1.42.38 2.36 1.56 2.46 3.08h-1.96c-.05-.6-.39-1.41-1.53-1.41-1.03 0-1.52.56-1.52 1.34 0 .84.66 1.22 1.86 1.73 1.78.74 3.26 1.51 3.26 3.44 0 1.68-1.21 2.96-3.13 3.35z"/>
</svg>
